<svg xmlns="http://www.w3.org/2000/svg" width="500" height="500"><path d="M0 250.002v250.002l250.25-.252 250.25-.252.252-249.75L501.004 0H0v250.002m.492.498c0 137.5.116 193.601.258 124.67.142-68.932.142-181.432 0-250C.608 56.601.492 113 .492 250.5m73.016-75.065c-10.796 3.678-13.553 5.038-16.306 8.042-1.822 1.988-4.389 4.024-5.705 4.524-4.03 1.532-5.825 5.324-5.031 10.623 1.505 10.037 7.251 11.509 24.436 6.261 5.611-1.713 10.469-2.848 10.796-2.52 1.418 1.418-6.09 10.265-21.755 25.635-14.418 14.146-16.915 17.046-17.506 20.327-.393 2.187-.225 4.842.392 6.197 1.487 3.263 9.145 5.42 21.924 6.173 6.57.388 10.642 1.075 11.338 1.913 3.6 4.337-5.893 16.127-17.281 21.464-7.193 3.371-7.526 3.426-20.81 3.426-15.518 0-17.487.742-20.951 7.899-4.141 8.553-1.936 15.682 6.253 20.22 5.046 2.797 5.592 2.878 18.698 2.768 11.011-.093 15.264-.581 23.07-2.647 20.054-5.309 30.985-13.37 37.954-27.987 5.336-11.194 7.322-19.498 6.751-28.233-.738-11.285-6.413-19.498-14.609-21.137-1.741-.348-3.166-.95-3.166-1.338 0-.388 2.138-2.229 4.75-4.09 15.573-11.094 21.3-20.327 22.035-35.526.519-10.747-1.089-14.965-7.935-20.826-8.513-7.286-18.469-7.598-37.342-1.168m168.204-3.33c-10.495 2.092-22.985 9.793-28.877 17.804-3.588 4.879-12.677 24.592-16.231 35.204-6.053 18.07-9.518 46.68-7.665 63.292 1.154 10.347 4.856 21.683 8.267 25.315 3.245 3.454 11.922 6.28 19.28 6.28 5.452 0 6.814-.374 9.109-2.5 1.483-1.375 3.441-2.5 4.351-2.5.91 0 2.082-.382 2.604-.848.523-.466 4.198-1.404 8.168-2.085 5.439-.932 8.284-2.051 11.547-4.543 5.294-4.043 14.193-14.781 19.535-23.574 4.967-8.177 14.54-30.409 16.651-38.673 1.309-5.123 4.522-23.861 4.543-26.497.003-.396 1.694.425 3.756 1.825 2.063 1.4 4.988 2.792 6.5 3.095 1.512.302 2.75.657 2.75.788s-2.692 10.829-5.981 23.774c-6.83 26.875-14.315 65.71-13.382 69.429.936 3.73 5.915 6.301 12.209 6.305 10.495.008 12.02-2.251 21.94-32.496 6.935-21.145 17.281-46.502 28.313-69.396 4.346-9.018 7.901-17.028 7.901-17.8 0-.772-.722-2.8-1.604-4.506-1.511-2.921-1.471-3.495.677-9.805 2.28-6.697 2.28-6.704.331-10.097-2.818-4.908-9.543-8.129-15.958-7.645-7.261.548-14.033 4.134-17.16 9.089-4.764 7.546-12.466 14.791-18.786 17.671-3.3 1.504-7.091 3.916-8.424 5.361-3.132 3.394-4.076 3.316-4.076-.337 0-1.631-.715-5.118-1.589-7.75-3.627-10.92-8.896-14.974-18.064-13.896l-5.347.628v-2.872c0-2.533-.678-3.174-5.75-5.429-6.908-3.073-13.084-3.898-19.538-2.611M410 172.063c-6.893 1.38-18.2 7.399-23.831 12.686-4.085 3.835-6.315 7.369-11.521 18.253-12.212 25.532-16.806 45.371-17.019 73.498-.117 15.443.091 17.671 2.27 24.323 4.607 14.066 9.841 18.259 23.691 18.986 7.329.385 8.392.209 10.304-1.703 2.631-2.631 7.616-4.535 16.106-6.153 7.17-1.366 10.462-3.421 17.677-11.03 9.544-10.065 14.939-18.92 22.97-37.701 13.421-31.383 14.408-66.188 2.209-77.854-2.728-2.61-3.617-2.861-9.878-2.793-6.67.073-6.888-.003-7.178-2.5-.625-5.372-15.664-10.042-25.8-8.012m-245 1.515c-5.641 1.804-6.668 2.634-11.676 9.452-5.38 7.324-14.597 15.651-18.198 16.442-3.822.84-10.672 6.787-11.911 10.34-1.937 5.557 3.369 12.218 11.035 13.852 1.512.322 2.75.867 2.75 1.211 0 .344-2.679 11.23-5.953 24.192C124.992 273.036 118 308.022 118 314.349c0 1.918.28 4.216.621 5.106 1.732 4.513 14.204 6.169 19.972 2.651 3.454-2.106 7.192-10.362 12.275-27.106 6.18-20.361 18.875-51.51 30.254-74.237 3.783-7.555 6.878-14.89 6.878-16.299 0-1.41-.71-3.937-1.579-5.617-1.474-2.849-1.44-3.375.5-7.885 1.144-2.658 2.079-5.926 2.079-7.263 0-5.44-8.639-11.708-16-11.607-1.925.026-5.525.695-8 1.486m81.573 30.749c-7.702 12.062-13.753 27.119-18.113 45.068-3.017 12.418-4.952 29.265-3.73 32.473.839 2.204 1.206 1.858 5.294-5 12.769-21.418 23.749-49.792 24.713-63.862.642-9.37-.032-12.588-2.788-13.309-1.659-.434-2.733.491-5.376 4.63m169.367-1.1c-7.16 9.852-15.074 29.935-19.448 49.352-2.777 12.325-4.513 31.421-2.856 31.421 1.279 0 10.327-15.506 15.799-27.078 6.41-13.556 13.567-35.556 14.262-43.843.685-8.171-.03-11.652-2.686-13.073-1.689-.904-2.402-.451-5.071 3.221" fill="undefined" fill-rule="evenodd"/></svg>